<svg width="24" height="24" viewBox="0 0 24 24" fill="none" xmlns="http://www.w3.org/2000/svg">
<path d="M15.8706 13.6198C15.8706 15.7541 14.1344 17.4904 12 17.4904C9.86565 17.4904 8.13004 15.7541 8.13004 13.6198C8.13004 11.4854 9.86565 9.74915 12 9.74915C14.1344 9.74915 15.8706 11.4861 15.8706 13.6198ZM24 8.12367V19.1172C24 20.5828 22.8117 21.771 21.3462 21.771H2.65384C1.18826 21.771 0 20.5828 0 19.1172V8.12367C0 6.65809 1.18826 5.46983 2.65384 5.46983H5.91806V4.5516C5.91806 3.26913 6.95704 2.22949 8.24017 2.22949H15.7598C17.043 2.22949 18.0819 3.26913 18.0819 4.5516V5.46917H21.3462C22.8117 5.46983 24 6.65809 24 8.12367ZM17.861 13.6198C17.861 10.3881 15.2317 7.75877 12 7.75877C8.76895 7.75877 6.13966 10.3881 6.13966 13.6198C6.13966 16.8515 8.76895 19.4808 12 19.4808C15.2317 19.4808 17.861 16.8515 17.861 13.6198Z" fill="white"/>
</svg>
