<svg width="75" height="44" viewBox="0 0 75 44" fill="none" xmlns="http://www.w3.org/2000/svg">
<path d="M6.03036 0.0166016C6.34232 0.608634 6.70628 1.32257 7.12223 2.15839C7.52084 3.01161 7.95416 3.89965 8.40477 4.927C8.85538 5.95435 9.28862 6.92948 9.7219 7.95683C10.1552 8.98418 10.5712 9.95928 10.9525 10.8822L12.2003 7.95683C12.6336 6.92948 13.0668 5.91953 13.5174 4.927C13.968 3.93448 14.384 3.01161 14.8 2.15839C15.2159 1.30516 15.5798 0.608634 15.8918 0.0166016H19.6007C19.774 1.23549 19.9473 2.5937 20.086 4.0912C20.2246 5.58869 20.3633 7.13841 20.4846 8.7578L20.7965 13.6334C20.7965 15.2702 20.9698 16.8025 21.0391 18.2303H17.0703C17.0703 16.4891 16.949 14.5388 16.8623 12.4493C16.7757 10.3598 16.6371 8.27024 16.4637 6.14589L15.4239 8.58368C15.0253 9.48915 14.644 10.3249 14.28 11.2652L13.1881 13.8249C12.8415 14.6433 12.5469 15.3398 12.2869 15.9144H9.4446C9.20196 15.3398 8.90735 14.6433 8.5434 13.8249C8.17944 13.0065 7.83283 12.0836 7.46887 11.2652L6.32501 8.58368L5.26783 6.14589C5.09452 8.27024 4.9732 10.3598 4.88655 12.4493C4.79989 14.5388 4.73052 16.4717 4.67853 18.2303H0.692383C0.692383 16.8025 0.848389 15.2702 0.935044 13.6334C1.0217 11.9966 1.14297 10.3772 1.26429 8.7578C1.38561 7.13841 1.50693 5.58869 1.64558 4.0912C1.78422 2.5937 1.95753 1.23549 2.13085 0.0166016H6.03036Z" fill="#6F5F80"/>
<path d="M36.8283 18.2303C36.6376 17.6035 36.4124 16.9418 36.187 16.2801L35.4938 14.2951H28.4053L27.7294 16.2975C27.5041 16.9592 27.2788 17.6035 27.0882 18.2303H22.79C23.4833 16.2627 24.1245 14.4518 24.7311 12.7976C25.3377 11.1434 25.9443 9.5588 26.4642 8.09613C26.9842 6.63346 27.6254 5.22302 28.1974 3.89966C28.7693 2.57629 29.3585 1.28773 29.9305 0.0166016H33.7953C34.4019 1.28773 34.9739 2.57629 35.5285 3.89966C36.0831 5.22302 36.6896 6.61605 37.2616 8.09613C37.8335 9.57621 38.4401 11.1259 38.9947 12.7976C39.5493 14.4692 40.2599 16.2801 40.9531 18.2303H36.8283ZM31.9409 4.14344L31.5423 5.22302L30.9357 6.80758C30.7104 7.39961 30.4677 8.0613 30.1904 8.77523C29.9131 9.48915 29.6358 10.2379 29.3412 11.0389H34.5406C34.2633 10.2379 34.0033 9.48915 33.7433 8.77523C33.4834 8.0613 33.2234 7.39962 32.9981 6.79018L32.3742 5.22302L31.9409 4.14344Z" fill="#6F5F80"/>
<path d="M54.2109 18.2311C53.847 17.6391 53.4137 16.9948 52.9284 16.3157C52.4432 15.6366 51.8885 14.9227 51.3166 14.2262C50.7447 13.5297 50.1381 12.868 49.5835 12.2237C48.994 11.6007 48.3629 11.019 47.6944 10.4825V18.1963H43.5869V0.0174032H47.6597V6.86062C48.7169 5.76361 49.7742 4.59696 50.866 3.37807L53.8643 0H58.6997C57.4692 1.48008 56.2213 2.90792 54.9735 4.26611C53.7257 5.6243 52.4258 6.99991 51.0393 8.37551C52.5693 9.67936 53.9736 11.1252 55.2335 12.6939C56.6443 14.4481 57.941 16.2918 59.1156 18.2137L54.2109 18.2311Z" fill="#6F5F80"/>
<path d="M61.4209 18.2303V0.0166016H73.6567V3.49915H65.4937V7.06876H72.7382V10.4294H65.4937V14.8348H74.2633V18.3174L61.4209 18.2303Z" fill="#6F5F80"/>
<path d="M13.9863 43.0613C13.7956 42.4171 13.5703 41.7728 13.345 41.1111C13.1197 40.4494 12.877 39.7704 12.6517 39.1087H5.56329L4.8874 41.1111C4.64476 41.7728 4.43674 42.4171 4.2461 43.0613H0C0.693246 41.0937 1.33449 39.2828 1.94108 37.6112C2.54767 35.9395 3.15426 34.3898 3.6742 32.9098C4.19413 31.4297 4.83538 30.0366 5.40731 28.7133C5.97924 27.3899 6.5685 26.1014 7.14043 24.8477H11.0053C11.5946 26.1014 12.1723 27.3899 12.7384 28.7133C13.3103 30.0366 13.8996 31.4471 14.4715 32.9098C15.0435 34.3724 15.6674 35.957 16.2046 37.6112C16.7419 39.2654 17.4698 41.0937 18.1457 43.0613H13.9863ZM9.09886 28.9745C8.99487 29.2357 8.87352 29.6013 8.68287 30.054L8.09362 31.6212L7.34839 33.6063C7.0711 34.3202 6.77648 35.0689 6.49918 35.8525H11.6985L10.884 33.5888L10.156 31.6212L9.53214 30.0367L9.09886 28.9745Z" fill="#6F5F80"/>
<path d="M19.3232 33.4326H26.8969V36.9152H19.3232V33.4326Z" fill="#6F5F80"/>
<path d="M34.9215 24.6393C37.1017 24.5092 39.2733 25.0108 41.178 26.0845C41.8998 26.5889 42.4789 27.2728 42.8587 28.0695C43.2384 28.8661 43.4058 29.7482 43.3444 30.6293C43.3912 31.7342 43.0878 32.8255 42.4779 33.7461C41.8126 34.5846 40.9402 35.233 39.9475 35.6267C40.3115 36.0795 40.6928 36.6018 41.0914 37.1764C41.49 37.7511 41.8886 38.3779 42.2872 39.0222C42.6859 39.6665 43.0671 40.3282 43.4311 41.0247C43.7951 41.7212 44.1243 42.3829 44.4536 43.0619H39.8782L38.873 41.3207C38.5264 40.7112 38.1798 40.1192 37.8158 39.5794C37.4519 39.0396 37.1052 38.4476 36.7586 37.9426C36.4371 37.4499 36.084 36.9787 35.7014 36.5322H33.691V43.1839H29.6182V25.1094C30.5285 24.9318 31.4488 24.8097 32.3738 24.7438C33.3097 24.6741 34.1589 24.6393 34.9215 24.6393ZM35.1642 28.1219H34.3669H33.691V33.0671H34.8522C35.9819 33.1508 37.1144 32.9472 38.1451 32.475C38.4773 32.2736 38.7462 31.9822 38.921 31.6341C39.0957 31.286 39.1692 30.8955 39.133 30.5074C39.1624 30.1277 39.0834 29.7475 38.9054 29.4113C38.7273 29.0752 38.4576 28.797 38.1278 28.6094C37.1846 28.1977 36.1537 28.0301 35.1295 28.1219H35.1642Z" fill="#6F5F80"/>
<path d="M47.0527 43.0614V24.8477H59.3059V28.3302H51.1429V31.9172H58.3873V35.2779H51.1429V39.6659H59.8951V43.1484L47.0527 43.0614Z" fill="#6F5F80"/>
<path d="M67.8516 39.9273C68.329 39.9348 68.8058 39.888 69.2727 39.788C69.5961 39.7143 69.9021 39.5783 70.1739 39.3876C70.3858 39.2377 70.5535 39.0332 70.6592 38.7955C70.7457 38.5497 70.7869 38.29 70.7805 38.0294C70.7793 37.7318 70.7022 37.4395 70.5566 37.1804C70.4109 36.9213 70.2016 36.704 69.9486 36.5493C69.0508 35.9977 68.0831 35.5701 67.0717 35.2781C66.4824 35.0692 65.8758 34.8254 65.3385 34.5468C64.7613 34.2894 64.2242 33.9492 63.7441 33.5369C63.2755 33.1116 62.8878 32.6042 62.6002 32.0394C62.2856 31.3706 62.1313 30.6371 62.1496 29.8976C62.1368 29.1119 62.2966 28.3331 62.6176 27.6165C62.9231 26.9407 63.3798 26.3448 63.9521 25.8753C64.5731 25.3796 65.2859 25.0127 66.0491 24.7957C66.9485 24.5261 67.8837 24.3969 68.8221 24.4126C69.8862 24.3904 70.9482 24.5194 71.9764 24.7957C72.7392 25.0053 73.4771 25.2973 74.1774 25.6663L72.9989 28.9051C72.4441 28.6191 71.8639 28.3859 71.2658 28.2086C70.542 27.9851 69.7872 27.8793 69.0301 27.8951C68.3007 27.8412 67.5703 27.9855 66.9157 28.313C66.7108 28.4438 66.5447 28.6277 66.435 28.8452C66.3252 29.0628 66.2757 29.306 66.2918 29.5494C66.2765 29.8504 66.3553 30.1487 66.5171 30.4026C66.6958 30.6525 66.9264 30.8605 67.193 31.012C67.5034 31.2152 67.8346 31.3845 68.1809 31.517L69.4287 31.9697C70.3646 32.318 71.1618 32.6662 71.8897 33.0145C72.5284 33.3179 73.1138 33.7237 73.6228 34.216C74.0785 34.6666 74.4279 35.2139 74.6454 35.8179C74.8905 36.5346 75.0078 37.2891 74.992 38.0467C75.0357 38.7965 74.9014 39.5459 74.6 40.2332C74.2987 40.9204 73.839 41.5259 73.2589 41.9995C71.6796 43.055 69.7951 43.5513 67.9036 43.4099C67.1784 43.4154 66.454 43.3631 65.7372 43.2532C65.1523 43.1767 64.5732 43.0604 64.0041 42.9049C63.5667 42.7839 63.1382 42.6326 62.7216 42.4522C62.4133 42.324 62.1124 42.1787 61.8203 42.0168L62.9642 38.7607C63.6072 39.0917 64.2805 39.36 64.9746 39.5617C65.9129 39.813 66.8806 39.936 67.8516 39.9273V39.9273Z" fill="#6F5F80"/>
</svg>
